<svg width="445" height="245" viewBox="0 0 445 245" fill="none" xmlns="http://www.w3.org/2000/svg">
<g clip-path="url(#clip0_101_19894)">
<rect width="445" height="245" rx="10" fill="white"/>
<rect x="348.334" y="15.159" width="76.6527" height="24.1268" rx="4.65481" stroke="#F1F2F4" stroke-width="0.620642"/>
<path d="M359.291 30.2222V29.4848H356.871V24.8747H356.052V30.2222H359.291ZM362.427 30.2222H363.052V27.69C363.052 26.7515 362.486 26.2004 361.511 26.2004C360.587 26.2004 359.954 26.7888 359.917 27.6751H360.602C360.624 27.1239 360.959 26.7962 361.511 26.7962C362.032 26.7962 362.337 27.1165 362.337 27.6825V27.973C362.017 27.9357 361.831 27.9283 361.6 27.9283C360.423 27.9283 359.805 28.3305 359.805 29.105C359.805 29.8274 360.341 30.2966 361.161 30.2966C361.741 30.2966 362.181 30.0509 362.427 29.6115V30.2222ZM360.52 29.0827C360.52 28.6209 360.892 28.3975 361.645 28.3975C361.838 28.3975 362.047 28.4049 362.337 28.4422V28.7624C362.337 29.3657 361.943 29.7604 361.309 29.7604C360.825 29.7604 360.52 29.4923 360.52 29.0827ZM367.186 29.0454C367.186 28.4794 366.814 28.1368 366.032 27.9953L365.361 27.8687C364.885 27.7793 364.684 27.6304 364.684 27.3101C364.684 26.9675 365.004 26.7664 365.48 26.7664C366.009 26.7664 366.359 27.042 366.404 27.5187H367.126C367.059 26.7069 366.419 26.2004 365.473 26.2004C364.557 26.2004 363.954 26.6845 363.954 27.3771C363.954 27.973 364.363 28.3453 365.093 28.4869L365.734 28.606C366.225 28.7028 366.426 28.8443 366.426 29.172C366.426 29.5444 366.076 29.7306 365.547 29.7306C364.944 29.7306 364.55 29.4253 364.52 28.9337H363.797C363.872 29.7828 364.49 30.2966 365.533 30.2966C366.583 30.2966 367.186 29.82 367.186 29.0454ZM370.183 29.4923C370.027 29.5668 369.87 29.5966 369.692 29.5966C369.29 29.5966 369.029 29.4029 369.029 28.8592V26.9154H370.22V26.2749H369.029V25.1056H368.277V26.2749H367.405V26.9154H368.277V29.0305C368.277 29.9019 368.783 30.2966 369.513 30.2966C369.751 30.2966 369.952 30.2594 370.183 30.1551V29.4923ZM375.511 25.6269V25.1875H372.115V25.8653H374.67L372.755 30.2222H373.567L375.511 25.6269ZM378.52 30.2222V27.9581C378.52 27.2952 378.93 26.8633 379.451 26.8633C380.002 26.8633 380.293 27.2505 380.293 27.9059V30.2222H381.045V27.9581C381.045 27.2952 381.462 26.8633 381.976 26.8633C382.527 26.8633 382.817 27.2505 382.817 27.9059V30.2222H383.57V27.6676C383.57 26.7292 383.048 26.2004 382.236 26.2004C381.633 26.2004 381.179 26.5132 380.903 27.0197C380.725 26.4983 380.285 26.2004 379.704 26.2004C379.161 26.2004 378.736 26.476 378.468 26.9303V26.2749H377.768V30.2222H378.52ZM386.229 30.2966C387.346 30.2966 388.165 29.4178 388.165 28.2485C388.165 27.0792 387.346 26.2004 386.229 26.2004C385.112 26.2004 384.292 27.0792 384.292 28.2485C384.292 29.4178 385.112 30.2966 386.229 30.2966ZM386.229 29.6338C385.581 29.6338 385.074 29.1125 385.074 28.2485C385.074 27.3846 385.581 26.8707 386.229 26.8707C386.877 26.8707 387.391 27.3846 387.391 28.2485C387.391 29.1125 386.877 29.6338 386.229 29.6338ZM389.684 27.9953C389.684 27.2952 390.116 26.8633 390.63 26.8633C391.189 26.8633 391.487 27.2431 391.487 27.9208V30.2222H392.239V27.6676C392.239 26.7217 391.703 26.2004 390.891 26.2004C390.347 26.2004 389.9 26.4909 389.632 26.9303V26.2749H388.932V30.2222H389.684V27.9953ZM395.45 29.4923C395.294 29.5668 395.137 29.5966 394.959 29.5966C394.556 29.5966 394.296 29.4029 394.296 28.8592V26.9154H395.487V26.2749H394.296V25.1056H393.544V26.2749H392.672V26.9154H393.544V29.0305C393.544 29.9019 394.05 30.2966 394.78 30.2966C395.018 30.2966 395.219 30.2594 395.45 30.1551V29.4923ZM396.957 27.9953C396.957 27.2952 397.389 26.8633 397.903 26.8633C398.462 26.8633 398.76 27.2431 398.76 27.9208V30.2222H399.512V27.6676C399.512 26.7217 398.976 26.2004 398.164 26.2004C397.62 26.2004 397.218 26.4834 396.957 26.9079V24.8747H396.205V30.2222H396.957V27.9953Z" fill="#111827"/>
<path d="M414.746 23.6021H408.539C407.968 23.6021 407.505 24.0652 407.505 24.6365V30.8429C407.505 31.4142 407.968 31.8773 408.539 31.8773H414.746C415.317 31.8773 415.78 31.4142 415.78 30.8429V24.6365C415.78 24.0652 415.317 23.6021 414.746 23.6021Z" stroke="#A0AEC0" stroke-width="0.930962" stroke-linecap="round" stroke-linejoin="round"/>
<path d="M413.712 22.5679V24.6367" stroke="#A0AEC0" stroke-width="0.930962" stroke-linecap="round" stroke-linejoin="round"/>
<path d="M409.573 22.5679V24.6367" stroke="#A0AEC0" stroke-width="0.930962" stroke-linecap="round" stroke-linejoin="round"/>
<path d="M407.505 26.7051H415.78" stroke="#A0AEC0" stroke-width="0.930962" stroke-linecap="round" stroke-linejoin="round"/>
<path d="M411.125 28.7739H411.642" stroke="#A0AEC0" stroke-width="1.24128" stroke-linecap="round" stroke-linejoin="round"/>
<path d="M411.643 28.7739V30.3255" stroke="#A0AEC0" stroke-width="0.930962" stroke-linecap="round" stroke-linejoin="round"/>
<path d="M22.5424 97.3131C23.8023 97.3131 24.6973 96.4442 24.6973 95.332C24.6973 94.1937 23.8631 93.4204 22.7162 93.4204C22.5598 93.4204 22.386 93.4552 22.2122 93.516L23.9413 91.3611H22.9421L21.1695 93.5507C20.6656 94.159 20.3962 94.6282 20.3962 95.3754C20.3962 96.4442 21.2999 97.3131 22.5424 97.3131ZM22.5511 96.5745C21.8646 96.5745 21.3172 96.0879 21.3172 95.3494C21.3172 94.5326 21.8646 94.1155 22.5511 94.1155C23.2462 94.1155 23.7849 94.5847 23.7849 95.358C23.7849 96.0879 23.2462 96.5745 22.5511 96.5745ZM25.3975 94.3067C25.3975 96.253 26.1535 97.3218 27.5611 97.3218C28.9687 97.3218 29.7333 96.253 29.7333 94.3067C29.7333 92.3603 28.9513 91.2742 27.5611 91.2742C26.1709 91.2742 25.3975 92.3603 25.3975 94.3067ZM26.3012 94.3067C26.3012 92.8382 26.753 92.0649 27.5611 92.0649C28.3865 92.0649 28.8297 92.8382 28.8297 94.3067C28.8297 95.7664 28.3865 96.5311 27.5611 96.5311C26.7356 96.5311 26.3012 95.7577 26.3012 94.3067ZM31.6421 97.2349V95.0539L33.7188 97.2349H34.8484L32.5197 94.8628L34.6485 92.6297H33.6145L31.6421 94.689V90.9962H30.7645V97.2349H31.6421Z" fill="#718096"/>
<path d="M22.5163 132.457C23.8805 132.457 24.6364 131.545 24.6364 130.494C24.6364 129.495 23.9326 128.591 22.638 128.591C22.2383 128.591 21.8646 128.713 21.5345 128.973L21.7951 127.279H24.2976V126.497H21.1608L20.6395 129.773L21.352 129.999C21.5953 129.573 21.9863 129.356 22.5076 129.356C23.2896 129.356 23.7241 129.886 23.7241 130.494C23.7241 131.163 23.3244 131.667 22.5163 131.667C21.8646 131.667 21.3868 131.293 21.3259 130.668H20.4483C20.4918 131.71 21.3694 132.457 22.5163 132.457ZM25.3636 129.442C25.3636 131.389 26.1195 132.457 27.5272 132.457C28.9348 132.457 29.6994 131.389 29.6994 129.442C29.6994 127.496 28.9174 126.41 27.5272 126.41C26.1369 126.41 25.3636 127.496 25.3636 129.442ZM26.2672 129.442C26.2672 127.974 26.7191 127.201 27.5272 127.201C28.3526 127.201 28.7957 127.974 28.7957 129.442C28.7957 130.902 28.3526 131.667 27.5272 131.667C26.7017 131.667 26.2672 130.893 26.2672 129.442ZM31.6082 132.371V130.19L33.6849 132.371H34.8144L32.4858 129.999L34.6146 127.765H33.5806L31.6082 129.825V126.132H30.7306V132.371H31.6082Z" fill="#718096"/>
<path d="M24.8189 166.211V165.447H24.0195V161.632H23.3418L20.318 165.594V166.211H23.1419V167.506H24.0195V166.211H24.8189ZM21.2999 165.447L23.1419 162.962V165.447H21.2999ZM25.5588 164.578C25.5588 166.524 26.3147 167.593 27.7223 167.593C29.1299 167.593 29.8946 166.524 29.8946 164.578C29.8946 162.631 29.1126 161.545 27.7223 161.545C26.3321 161.545 25.5588 162.631 25.5588 164.578ZM26.4624 164.578C26.4624 163.109 26.9142 162.336 27.7223 162.336C28.5478 162.336 28.9909 163.109 28.9909 164.578C28.9909 166.037 28.5478 166.802 27.7223 166.802C26.8969 166.802 26.4624 166.029 26.4624 164.578ZM31.8034 167.506V165.325L33.88 167.506H35.0096L32.6809 165.134L34.8097 162.901H33.7758L31.8034 164.96V161.267H30.9258V167.506H31.8034Z" fill="#718096"/>
<path d="M22.5858 202.72C23.837 202.72 24.6886 202.007 24.6886 200.965C24.6886 200.287 24.2454 199.783 23.4721 199.574C24.0803 199.288 24.4192 198.827 24.4192 198.254C24.4192 197.333 23.6893 196.681 22.5598 196.681C21.491 196.681 20.6743 197.402 20.6482 198.367H21.4997C21.5258 197.767 21.9255 197.385 22.525 197.385C23.1159 197.385 23.5069 197.758 23.5069 198.314C23.5069 198.888 23.0724 199.27 22.4121 199.27H21.8473V199.974H22.4555C23.2636 199.974 23.7762 200.365 23.7762 200.982C23.7762 201.616 23.3244 202.016 22.5858 202.016C21.8733 202.016 21.4041 201.608 21.3694 200.973H20.5092C20.5179 202.007 21.3694 202.72 22.5858 202.72ZM25.5333 199.713C25.5333 201.66 26.2892 202.728 27.6969 202.728C29.1045 202.728 29.8691 201.66 29.8691 199.713C29.8691 197.767 29.0871 196.681 27.6969 196.681C26.3066 196.681 25.5333 197.767 25.5333 199.713ZM26.437 199.713C26.437 198.245 26.8888 197.472 27.6969 197.472C28.5223 197.472 28.9654 198.245 28.9654 199.713C28.9654 201.173 28.5223 201.938 27.6969 201.938C26.8714 201.938 26.437 201.164 26.437 199.713ZM31.7779 202.642V200.461L33.8546 202.642H34.9841L32.6555 200.27L34.7843 198.036H33.7503L31.7779 200.096V196.403H30.9003V202.642H31.7779Z" fill="#718096"/>
<path d="M60.4191 220.108H59.4547V224.243C59.4547 225.147 59.0115 225.616 58.2034 225.616C57.4041 225.616 56.987 225.138 56.9522 224.348H55.9878C56.0225 225.616 56.8393 226.477 58.2034 226.477C59.5937 226.477 60.4191 225.608 60.4191 224.2V220.108ZM64.4478 226.346H65.1777V223.392C65.1777 222.297 64.5174 221.654 63.3791 221.654C62.3017 221.654 61.5631 222.341 61.5197 223.375H62.319C62.3451 222.732 62.7361 222.349 63.3791 222.349C63.9873 222.349 64.3436 222.723 64.3436 223.383V223.722C63.9699 223.679 63.7527 223.67 63.4834 223.67C62.1105 223.67 61.3893 224.139 61.3893 225.043C61.3893 225.886 62.0149 226.433 62.9707 226.433C63.6485 226.433 64.1611 226.146 64.4478 225.634V226.346ZM62.2235 225.017C62.2235 224.478 62.6579 224.217 63.5355 224.217C63.7614 224.217 64.0047 224.226 64.3436 224.27V224.643C64.3436 225.347 63.8831 225.807 63.1445 225.807C62.5797 225.807 62.2235 225.495 62.2235 225.017ZM67.2287 223.748C67.2287 222.931 67.7326 222.427 68.3322 222.427C68.9838 222.427 69.3314 222.871 69.3314 223.661V226.346H70.209V223.366C70.209 222.262 69.5834 221.654 68.6363 221.654C68.002 221.654 67.4806 221.993 67.1678 222.506V221.741H66.3511V226.346H67.2287V223.748Z" fill="#718096"/>
<path d="M114.964 226.346V223.809H117.379V222.975H114.964V220.942H117.796V220.108H114.008V226.346H114.964ZM120.432 226.433C121.518 226.433 122.308 225.816 122.534 224.791H121.665C121.518 225.39 121.066 225.747 120.414 225.747C119.641 225.747 119.172 225.199 119.102 224.261H122.534C122.691 222.766 121.778 221.654 120.405 221.654C119.137 221.654 118.207 222.653 118.207 224.018C118.207 225.469 119.102 226.433 120.432 226.433ZM120.388 222.315C121.101 222.315 121.561 222.827 121.605 223.679H119.111C119.206 222.818 119.684 222.315 120.388 222.315ZM127.864 224.044C127.864 222.645 127.056 221.654 125.822 221.654C125.196 221.654 124.666 221.967 124.345 222.532V220.108H123.467V226.346H124.284V225.521C124.614 226.103 125.17 226.433 125.822 226.433C127.065 226.433 127.864 225.425 127.864 224.044ZM126.952 224.044C126.952 225.069 126.404 225.651 125.648 225.651C124.901 225.651 124.345 225.043 124.345 224.026C124.345 222.992 124.918 222.427 125.648 222.427C126.404 222.427 126.952 223.001 126.952 224.044Z" fill="#718096"/>
<path d="M174.329 226.346H175.146L177.127 221.567V226.346H178.014V220.108H176.832L174.747 225.173L172.653 220.108H171.479V226.346H172.357V221.576L174.329 226.346ZM182.082 226.346H182.812V223.392C182.812 222.297 182.152 221.654 181.013 221.654C179.936 221.654 179.197 222.341 179.154 223.375H179.953C179.979 222.732 180.37 222.349 181.013 222.349C181.622 222.349 181.978 222.723 181.978 223.383V223.722C181.604 223.679 181.387 223.67 181.118 223.67C179.745 223.67 179.024 224.139 179.024 225.043C179.024 225.886 179.649 226.433 180.605 226.433C181.283 226.433 181.795 226.146 182.082 225.634V226.346ZM179.858 225.017C179.858 224.478 180.292 224.217 181.17 224.217C181.396 224.217 181.639 224.226 181.978 224.27V224.643C181.978 225.347 181.517 225.807 180.779 225.807C180.214 225.807 179.858 225.495 179.858 225.017ZM184.863 223.991C184.863 222.975 185.584 222.54 186.575 222.593V221.68C185.819 221.68 185.124 222.08 184.802 222.714V221.741H183.985V226.346H184.863V223.991Z" fill="#718096"/>
<path d="M234.245 226.346H235.261L232.889 220.108H231.838L229.448 226.346H230.413L230.986 224.8H233.68L234.245 226.346ZM232.342 221.15L233.393 224.026H231.273L232.342 221.15ZM240.448 224.044C240.448 222.653 239.64 221.654 238.415 221.654C237.763 221.654 237.198 221.993 236.868 222.584V221.741H236.051V228.023H236.929V225.564C237.259 226.12 237.789 226.433 238.415 226.433C239.649 226.433 240.448 225.434 240.448 224.044ZM239.536 224.044C239.536 225.078 238.988 225.651 238.232 225.651C237.494 225.651 236.929 225.06 236.929 224.044C236.929 223.01 237.503 222.427 238.232 222.427C238.988 222.427 239.536 223.01 239.536 224.044ZM242.215 223.991C242.215 222.975 242.937 222.54 243.927 222.593V221.68C243.171 221.68 242.476 222.08 242.155 222.714V221.741H241.338V226.346H242.215V223.991Z" fill="#718096"/>
<path d="M290.275 226.346H291.092L293.073 221.567V226.346H293.959V220.108H292.777L290.692 225.173L288.598 220.108H287.425V226.346H288.302V221.576L290.275 226.346ZM298.027 226.346H298.757V223.392C298.757 222.297 298.097 221.654 296.959 221.654C295.881 221.654 295.143 222.341 295.099 223.375H295.899C295.925 222.732 296.316 222.349 296.959 222.349C297.567 222.349 297.923 222.723 297.923 223.383V223.722C297.549 223.679 297.332 223.67 297.063 223.67C295.69 223.67 294.969 224.139 294.969 225.043C294.969 225.886 295.594 226.433 296.55 226.433C297.228 226.433 297.741 226.146 298.027 225.634V226.346ZM295.803 225.017C295.803 224.478 296.237 224.217 297.115 224.217C297.341 224.217 297.584 224.226 297.923 224.27V224.643C297.923 225.347 297.463 225.807 296.724 225.807C296.159 225.807 295.803 225.495 295.803 225.017ZM303.609 221.741H302.723L301.481 225.251L300.143 221.741H299.195L301.011 226.285L300.351 228.023H301.307L303.609 221.741Z" fill="#718096"/>
<path d="M350.78 220.108H349.816V224.243C349.816 225.147 349.373 225.616 348.565 225.616C347.765 225.616 347.348 225.138 347.314 224.348H346.349C346.384 225.616 347.201 226.477 348.565 226.477C349.955 226.477 350.78 225.608 350.78 224.2V220.108ZM354.896 224.452C354.896 225.173 354.418 225.66 353.827 225.66C353.254 225.66 352.854 225.33 352.854 224.53V221.741H351.977V224.704C351.977 225.886 352.62 226.433 353.549 226.433C354.175 226.433 354.714 226.094 354.957 225.616V226.346H355.774V221.741H354.896V224.452ZM357.87 223.748C357.87 222.931 358.374 222.427 358.973 222.427C359.625 222.427 359.973 222.871 359.973 223.661V226.346H360.85V223.366C360.85 222.262 360.225 221.654 359.278 221.654C358.643 221.654 358.122 221.993 357.809 222.506V221.741H356.992V226.346H357.87V223.748Z" fill="#718096"/>
<path d="M409.253 220.108H408.289V224.243C408.289 225.147 407.846 225.616 407.037 225.616C406.238 225.616 405.821 225.138 405.786 224.348H404.822C404.856 225.616 405.673 226.477 407.037 226.477C408.428 226.477 409.253 225.608 409.253 224.2V220.108ZM413.369 224.452C413.369 225.173 412.891 225.66 412.3 225.66C411.726 225.66 411.327 225.33 411.327 224.53V221.741H410.449V224.704C410.449 225.886 411.092 226.433 412.022 226.433C412.648 226.433 413.186 226.094 413.43 225.616V226.346H414.246V221.741H413.369V224.452ZM416.351 226.346V220.108H415.465V226.346H416.351Z" fill="#718096"/>
<path opacity="0.8" d="M51.5137 76.5198C51.5137 73.7777 53.7366 71.5547 56.4788 71.5547H73.8568C76.5989 71.5547 78.8219 73.7777 78.8219 76.5198V206.855H51.5137V76.5198Z" fill="#F9FAFB"/>
<line x1="65.4783" y1="81.7952" x2="65.4783" y2="206.544" stroke="#F1F2F4" stroke-width="0.620642" stroke-linecap="round"/>
<path opacity="0.8" d="M109.233 76.5198C109.233 73.7777 111.456 71.5547 114.199 71.5547H131.576C134.319 71.5547 136.542 73.7777 136.542 76.5198V206.855H109.233V76.5198Z" fill="#F9FAFB"/>
<line x1="123.198" y1="81.7952" x2="123.198" y2="206.544" stroke="#F1F2F4" stroke-width="0.620642" stroke-linecap="round"/>
<path opacity="0.8" d="M166.953 76.5198C166.953 73.7777 169.176 71.5547 171.918 71.5547H189.296C192.038 71.5547 194.261 73.7777 194.261 76.5198V206.855H166.953V76.5198Z" fill="#F9FAFB"/>
<line x1="180.918" y1="81.7952" x2="180.918" y2="206.544" stroke="#F1F2F4" stroke-width="0.620642" stroke-linecap="round"/>
<path d="M224.673 76.5198C224.673 73.7777 226.896 71.5547 229.638 71.5547H247.016C249.758 71.5547 251.981 73.7777 251.981 76.5198V206.855H224.673V76.5198Z" fill="url(#paint0_linear_101_19894)"/>
<line x1="238.637" y1="81.7952" x2="238.637" y2="206.544" stroke="white" stroke-width="0.620642" stroke-linecap="round" stroke-dasharray="2.48 2.48"/>
<path opacity="0.8" d="M282.393 76.5198C282.393 73.7777 284.616 71.5547 287.358 71.5547H304.736C307.478 71.5547 309.701 73.7777 309.701 76.5198V206.855H282.393V76.5198Z" fill="#F9FAFB"/>
<line x1="296.357" y1="81.7952" x2="296.357" y2="206.544" stroke="#F1F2F4" stroke-width="0.620642" stroke-linecap="round"/>
<path opacity="0.8" d="M340.112 76.5198C340.112 73.7777 342.335 71.5547 345.077 71.5547H362.455C365.198 71.5547 367.421 73.7777 367.421 76.5198V206.855H340.112V76.5198Z" fill="#F9FAFB"/>
<line x1="354.077" y1="81.7952" x2="354.077" y2="206.544" stroke="#F1F2F4" stroke-width="0.620642" stroke-linecap="round"/>
<path opacity="0.8" d="M397.832 76.5198C397.832 73.7777 400.055 71.5547 402.797 71.5547H420.175C422.917 71.5547 425.14 73.7777 425.14 76.5198V206.855H397.832V76.5198Z" fill="#F9FAFB"/>
<line x1="411.797" y1="81.7952" x2="411.797" y2="206.544" stroke="#F1F2F4" stroke-width="0.620642" stroke-linecap="round"/>
<path d="M63.3057 160.148C90.9488 161.604 112.38 145.233 123.251 145.233C135.985 145.233 166.424 161.365 180.711 159.785C198.415 157.827 224.505 129.166 238.793 127.771C253.701 126.316 282.276 152.053 296.564 153.236C312.715 154.574 330.798 140.922 354.956 139.412C373.281 138.268 397.508 113.22 412.727 113.22" stroke="#0CAF60" stroke-width="1.5516" stroke-linecap="round"/>
<path d="M23.2558 24.8701C25.0631 24.8701 26.4272 23.4538 26.4272 21.6117C26.4272 19.7696 25.0631 18.3707 23.2558 18.3707C21.4485 18.3707 20.0843 19.7696 20.0843 21.6117C20.0843 23.4538 21.4485 24.8701 23.2558 24.8701ZM23.2558 24.0099C21.935 24.0099 21.0748 22.9498 21.0748 21.6117C21.0748 20.2736 21.935 19.2309 23.2558 19.2309C24.5765 19.2309 25.4367 20.2736 25.4367 21.6117C25.4367 22.9498 24.5765 24.0099 23.2558 24.0099ZM31.1693 20.1346H30.2744L28.9797 23.7318L27.7024 20.1346H26.7553L28.4844 24.7397H29.4402L31.1693 20.1346ZM33.5424 24.8266C34.6286 24.8266 35.4193 24.2097 35.6452 23.1844H34.7763C34.6286 23.784 34.1767 24.1402 33.5251 24.1402C32.7517 24.1402 32.2825 23.5928 32.213 22.6544H35.6452C35.8016 21.1599 34.8892 20.0477 33.5164 20.0477C32.2478 20.0477 31.3181 21.0469 31.3181 22.4111C31.3181 23.8622 32.213 24.8266 33.5424 24.8266ZM33.499 20.7081C34.2115 20.7081 34.672 21.2207 34.7154 22.0722H32.2217C32.3173 21.212 32.7952 20.7081 33.499 20.7081ZM37.4558 22.385C37.4558 21.3684 38.177 20.934 39.1675 20.9861V20.0738C38.4116 20.0738 37.7165 20.4735 37.395 21.1078V20.1346H36.5782V24.7397H37.4558V22.385ZM42.6512 24.7397H43.3811V21.7855C43.3811 20.6907 42.7207 20.0477 41.5825 20.0477C40.505 20.0477 39.7665 20.7341 39.723 21.7681H40.5224C40.5485 21.1251 40.9395 20.7428 41.5825 20.7428C42.1907 20.7428 42.5469 21.1164 42.5469 21.7768V22.1157C42.1733 22.0722 41.9561 22.0635 41.6867 22.0635C40.3139 22.0635 39.5927 22.5327 39.5927 23.4364C39.5927 24.2792 40.2183 24.8266 41.1741 24.8266C41.8518 24.8266 42.3645 24.5399 42.6512 24.0272V24.7397ZM40.4268 23.4103C40.4268 22.8716 40.8613 22.6109 41.7389 22.6109C41.9648 22.6109 42.2081 22.6196 42.5469 22.6631V23.0367C42.5469 23.7405 42.0864 24.201 41.3479 24.201C40.7831 24.201 40.4268 23.8882 40.4268 23.4103ZM45.4407 24.7397V18.5011H44.5544V24.7397H45.4407ZM47.5451 24.7397V18.5011H46.6588V24.7397H47.5451ZM54.2284 23.3669C54.2284 22.7065 53.7939 22.3068 52.8816 22.1417L52.0996 21.994C51.5435 21.8898 51.3089 21.716 51.3089 21.3424C51.3089 20.9427 51.6825 20.7081 52.2386 20.7081C52.8555 20.7081 53.2639 21.0296 53.316 21.5856H54.1589C54.0807 20.6385 53.3334 20.0477 52.2299 20.0477C51.1612 20.0477 50.4574 20.6125 50.4574 21.4206C50.4574 22.1157 50.9353 22.5501 51.7868 22.7152L52.534 22.8542C53.1075 22.9672 53.3421 23.1323 53.3421 23.5146C53.3421 23.949 52.9337 24.1663 52.3168 24.1663C51.613 24.1663 51.1525 23.81 51.1177 23.2366H50.2749C50.3618 24.2271 51.083 24.8266 52.2994 24.8266C53.5246 24.8266 54.2284 24.2705 54.2284 23.3669ZM57.9757 24.7397H58.7056V21.7855C58.7056 20.6907 58.0452 20.0477 56.907 20.0477C55.8295 20.0477 55.091 20.7341 55.0475 21.7681H55.8469C55.873 21.1251 56.264 20.7428 56.907 20.7428C57.5152 20.7428 57.8715 21.1164 57.8715 21.7768V22.1157C57.4978 22.0722 57.2806 22.0635 57.0112 22.0635C55.6384 22.0635 54.9172 22.5327 54.9172 23.4364C54.9172 24.2792 55.5428 24.8266 56.4986 24.8266C57.1763 24.8266 57.689 24.5399 57.9757 24.0272V24.7397ZM55.7513 23.4103C55.7513 22.8716 56.1858 22.6109 57.0634 22.6109C57.2893 22.6109 57.5326 22.6196 57.8715 22.6631V23.0367C57.8715 23.7405 57.4109 24.201 56.6724 24.201C56.1076 24.201 55.7513 23.8882 55.7513 23.4103ZM60.7652 24.7397V18.5011H59.8789V24.7397H60.7652ZM63.8775 24.8266C64.9636 24.8266 65.7543 24.2097 65.9802 23.1844H65.1113C64.9636 23.784 64.5118 24.1402 63.8601 24.1402C63.0868 24.1402 62.6176 23.5928 62.5481 22.6544H65.9802C66.1366 21.1599 65.2243 20.0477 63.8514 20.0477C62.5828 20.0477 61.6531 21.0469 61.6531 22.4111C61.6531 23.8622 62.5481 24.8266 63.8775 24.8266ZM63.8341 20.7081C64.5466 20.7081 65.0071 21.2207 65.0505 22.0722H62.5568C62.6524 21.212 63.1303 20.7081 63.8341 20.7081ZM70.5627 23.3669C70.5627 22.7065 70.1282 22.3068 69.2159 22.1417L68.4339 21.994C67.8778 21.8898 67.6432 21.716 67.6432 21.3424C67.6432 20.9427 68.0168 20.7081 68.5729 20.7081C69.1898 20.7081 69.5982 21.0296 69.6503 21.5856H70.4932C70.415 20.6385 69.6677 20.0477 68.5642 20.0477C67.4955 20.0477 66.7916 20.6125 66.7916 21.4206C66.7916 22.1157 67.2695 22.5501 68.1211 22.7152L68.8683 22.8542C69.4418 22.9672 69.6764 23.1323 69.6764 23.5146C69.6764 23.949 69.268 24.1663 68.6511 24.1663C67.9473 24.1663 67.4868 23.81 67.452 23.2366H66.6092C66.6961 24.2271 67.4173 24.8266 68.6337 24.8266C69.8589 24.8266 70.5627 24.2705 70.5627 23.3669Z" fill="#718096"/>
<path d="M25.0742 47.5479V46.3413C27.2192 46.1328 28.5449 44.8816 28.5449 42.9899C28.5449 41.5301 27.5022 40.5768 25.6403 40.1895L24.0018 39.8469C23.4953 39.7427 23.0634 39.4597 23.0634 39.0277C23.0634 38.3574 23.6145 38.0595 24.3444 38.0595C25.2083 38.0595 25.7892 38.5957 25.8488 39.415H28.3959C28.2619 37.5828 26.966 36.3465 25.0742 36.0635V34.7974H23.4358V36.0635C21.6781 36.3614 20.4716 37.5828 20.4716 39.2213C20.4716 41.0237 21.6483 41.7684 23.1676 42.0961L24.8359 42.4536C25.3275 42.5579 25.8041 42.8856 25.8041 43.3176C25.8041 43.9581 25.1636 44.3007 24.2848 44.3007C23.2421 44.3007 22.6165 43.7644 22.6165 42.8856H20.0694C20.2183 44.7475 21.4696 45.9987 23.4358 46.2966V47.5479H25.0742ZM33.3592 46.3711C36.0851 46.3711 37.3363 44.5092 37.3363 42.8707C37.3363 41.1726 36.2489 39.415 33.6869 39.415C33.1656 39.415 32.6443 39.5192 32.1825 39.7427L32.391 38.4468H36.7256V36.1529H30.5291L29.6354 41.8131L31.7654 42.5281C31.9889 41.8876 32.5251 41.6046 33.2401 41.6046C34.3572 41.6046 34.6849 42.3047 34.6849 42.8558C34.6849 43.392 34.4168 44.0772 33.3443 44.0772C32.5549 44.0772 31.9889 43.7346 31.8548 43.0346H29.2779C29.3524 44.971 31.0802 46.3711 33.3592 46.3711ZM42.0576 46.3413C44.5004 46.3413 46.1538 44.7475 46.1538 42.7962C46.1538 40.9194 44.7089 39.5341 42.564 39.5341H42.4002L45.2303 36.1529H42.3406L39.3019 39.7278C38.289 40.9194 37.9911 41.7387 37.9911 42.975C37.9911 44.7624 39.6445 46.3413 42.0576 46.3413ZM42.0874 44.1964C41.3724 44.1964 40.6723 43.8091 40.6723 42.8856C40.6723 41.9174 41.3724 41.545 42.0874 41.545C42.8023 41.545 43.4875 41.9174 43.4875 42.8856C43.4875 43.8091 42.8023 44.1964 42.0874 44.1964ZM50.2137 45.2689C50.2137 43.7644 49.5285 43.0494 48.4561 43.0494C47.5772 43.0494 46.9069 43.6602 46.9069 44.5688C46.9069 45.3433 47.4879 45.9838 48.2475 45.9838C48.3369 45.9838 48.4114 45.9838 48.5454 45.9541C48.4114 46.818 47.5772 47.3095 46.3707 47.3095V48.6352C48.4561 48.6352 50.2137 47.384 50.2137 45.2689ZM54.7814 46.3562C57.2093 46.3562 58.8478 45.0603 58.8478 43.1388C58.8478 42.0961 58.1924 41.3365 57.0008 40.9194C57.9094 40.3832 58.401 39.698 58.401 38.8341C58.401 37.1807 57.0455 36.0039 54.7814 36.0039C52.6811 36.0039 51.0575 37.3743 51.0575 39.1915H53.5451C53.5451 38.4617 53.9621 38.0148 54.6473 38.0148C55.3623 38.0148 55.7645 38.3872 55.7645 39.0426C55.7645 39.7129 55.2729 40.0704 54.3643 40.0704H53.3812V42.0812H54.5133C55.6006 42.0812 56.2113 42.4834 56.2113 43.1984C56.2113 43.9283 55.7049 44.3453 54.8112 44.3453C53.977 44.3453 53.4557 43.9134 53.3961 43.1686H50.8937C50.8937 45.0305 52.5173 46.3562 54.7814 46.3562ZM68.3453 44.4347V42.2004H66.9004V36.1529H64.8151L59.6166 42.5132V44.4347H64.3533V46.2222H66.9004V44.4347H68.3453ZM62.3871 42.2004L64.3533 39.7278V42.2004H62.3871ZM73.1724 46.3711C75.8983 46.3711 77.1495 44.5092 77.1495 42.8707C77.1495 41.1726 76.0621 39.415 73.5001 39.415C72.9788 39.415 72.4574 39.5192 71.9957 39.7427L72.2042 38.4468H76.5388V36.1529H70.3423L69.4486 41.8131L71.5786 42.5281C71.802 41.8876 72.3383 41.6046 73.0533 41.6046C74.1704 41.6046 74.4981 42.3047 74.4981 42.8558C74.4981 43.392 74.23 44.0772 73.1575 44.0772C72.3681 44.0772 71.802 43.7346 71.668 43.0346H69.0911C69.1656 44.971 70.8934 46.3711 73.1724 46.3711ZM81.2119 44.673C81.2119 43.7048 80.5565 43.0346 79.6032 43.0346C78.6499 43.0346 77.9796 43.7048 77.9796 44.673C77.9796 45.6264 78.6499 46.2966 79.6032 46.2966C80.5565 46.2966 81.2119 45.6264 81.2119 44.673ZM85.1007 36.0337C82.6579 36.0337 81.0045 37.6275 81.0045 39.5788C81.0045 41.4556 82.4493 42.8409 84.5943 42.8409H84.7581L81.928 46.2222H84.8177L87.8564 42.6473C88.8693 41.4556 89.1672 40.6364 89.1672 39.4001C89.1672 37.6126 87.5138 36.0337 85.1007 36.0337ZM85.0709 38.1787C85.7859 38.1787 86.486 38.5659 86.486 39.4894C86.486 40.4576 85.7859 40.83 85.0709 40.83C84.356 40.83 83.6708 40.4576 83.6708 39.4894C83.6708 38.5659 84.356 38.1787 85.0709 38.1787ZM97.9375 43.2282C97.9375 42.2153 97.297 41.4705 96.4033 40.9939C97.1332 40.5321 97.6396 39.8916 97.6396 38.983C97.6396 37.2998 96.165 36.0039 93.9158 36.0039C91.6219 36.0039 90.1621 37.2998 90.1621 38.983C90.1621 39.8916 90.6686 40.5321 91.3984 40.9939C90.4898 41.4705 89.8493 42.2153 89.8493 43.2282C89.8493 45.0305 91.4431 46.3562 93.9158 46.3562C96.3437 46.3562 97.9375 45.0305 97.9375 43.2282ZM92.7986 39.0724C92.7986 38.417 93.2008 38.0148 93.9158 38.0148C94.601 38.0148 95.0031 38.417 95.0031 39.0724C95.0031 39.6533 94.601 40.0257 93.9158 40.0257C93.2008 40.0257 92.7986 39.6533 92.7986 39.0724ZM92.5007 43.1686C92.5007 42.5132 92.9923 42.0366 93.9158 42.0366C94.7946 42.0366 95.3159 42.5132 95.3159 43.1686C95.3159 43.8985 94.7946 44.3453 93.9158 44.3453C92.9923 44.3453 92.5007 43.8985 92.5007 43.1686Z" fill="#111827"/>
<path d="M60.8232 138.284C82.2354 138.284 100.544 167.587 123.818 167.587C142.748 167.587 170.677 149.697 181.228 151.442C196.594 153.984 205.433 164.497 217.535 165.499C241.12 167.452 277.737 126.212 296.046 128.687C313.735 131.078 322.734 155.785 334.526 155.785C346.318 155.785 372.385 135.462 380.454 135.462C388.522 135.462 398.142 146.188 412.106 146.188" stroke="#FFD023" stroke-width="1.5516" stroke-linecap="round"/>
<g filter="url(#filter0_d_101_19894)">
<ellipse cx="238.326" cy="127.449" rx="3.72385" ry="3.71212" fill="white"/>
<path d="M241.43 127.449C241.43 129.155 240.042 130.541 238.326 130.541C236.611 130.541 235.223 129.155 235.223 127.449C235.223 125.744 236.611 124.358 238.326 124.358C240.042 124.358 241.43 125.744 241.43 127.449Z" stroke="#0CAF60" stroke-width="1.24128"/>
</g>
<rect x="103.457" y="33.3506" width="38.8605" height="14.9651" rx="7.48257" fill="#0CAF60"/>
<path d="M109.354 42.3849L111.215 40.523L112.457 41.7643L114.939 39.2817" stroke="white" stroke-width="0.620642" stroke-linecap="round" stroke-linejoin="round"/>
<path d="M112.767 39.2817H114.939V41.454" stroke="white" stroke-width="0.620642" stroke-linecap="round" stroke-linejoin="round"/>
<path d="M121.387 42.2744H119.619L120.463 41.3186C121.152 40.5863 121.332 40.2511 121.332 39.7732C121.332 39.0843 120.761 38.5754 119.979 38.5754C119.147 38.5754 118.564 39.134 118.564 39.9098H119.178C119.178 39.4443 119.488 39.1402 119.954 39.1402C120.382 39.1402 120.674 39.4319 120.674 39.8477C120.674 40.2263 120.481 40.518 119.985 41.058L118.675 42.473V42.833H121.387V42.2744ZM123.394 42.8889C124.288 42.8889 124.896 42.3799 124.896 41.6352C124.896 41.1511 124.58 40.7911 124.027 40.6421C124.462 40.4373 124.704 40.1084 124.704 39.6988C124.704 39.0409 124.182 38.5754 123.376 38.5754C122.612 38.5754 122.029 39.0905 122.01 39.7795H122.618C122.637 39.3512 122.922 39.0781 123.351 39.0781C123.773 39.0781 124.052 39.345 124.052 39.7422C124.052 40.1518 123.742 40.4249 123.27 40.4249H122.867V40.9276H123.301C123.878 40.9276 124.244 41.2069 124.244 41.6476C124.244 42.1007 123.922 42.3861 123.394 42.3861C122.885 42.3861 122.55 42.0944 122.525 41.6414H121.911C121.917 42.3799 122.525 42.8889 123.394 42.8889ZM126.45 42.5661C126.45 42.1503 126.264 41.902 125.922 41.902C125.668 41.902 125.469 42.0758 125.469 42.3427C125.469 42.5723 125.643 42.7647 125.879 42.7647C125.922 42.7647 125.959 42.7585 126.015 42.7399C125.978 43.044 125.705 43.2613 125.302 43.2737V43.6274C125.984 43.615 126.45 43.1557 126.45 42.5661ZM128.43 42.8951C129.404 42.8951 129.944 42.2434 129.944 41.4924C129.944 40.7787 129.441 40.1332 128.517 40.1332C128.231 40.1332 127.964 40.2201 127.728 40.4063L127.914 39.196H129.702V38.6375H127.461L127.089 40.9773L127.598 41.1387C127.772 40.8345 128.051 40.6794 128.423 40.6794C128.982 40.6794 129.292 41.058 129.292 41.4924C129.292 41.9703 129.007 42.3303 128.43 42.3303C127.964 42.3303 127.623 42.0634 127.579 41.6166H126.952C126.984 42.3613 127.61 42.8951 128.43 42.8951ZM131.649 41.2069C132.412 41.2069 132.958 40.6235 132.958 39.9036C132.958 39.1836 132.412 38.6002 131.649 38.6002C130.892 38.6002 130.345 39.1836 130.345 39.9036C130.345 40.6235 130.892 41.2069 131.649 41.2069ZM132.543 42.833L134.913 38.6375H134.398L132.027 42.833H132.543ZM131.649 40.7539C131.233 40.7539 130.873 40.456 130.873 39.9036C130.873 39.345 131.233 39.0533 131.649 39.0533C132.071 39.0533 132.431 39.345 132.431 39.9036C132.431 40.456 132.071 40.7539 131.649 40.7539ZM135.36 42.8827C136.124 42.8827 136.664 42.3055 136.664 41.5793C136.664 40.8594 136.124 40.276 135.36 40.276C134.597 40.276 134.057 40.8594 134.057 41.5793C134.057 42.3055 134.597 42.8827 135.36 42.8827ZM135.36 42.4296C134.944 42.4296 134.578 42.1317 134.578 41.5793C134.578 41.0269 134.944 40.7352 135.36 40.7352C135.782 40.7352 136.136 41.0269 136.136 41.5793C136.136 42.1317 135.782 42.4296 135.36 42.4296Z" fill="white"/>
<g filter="url(#filter1_d_101_19894)">
<rect x="211.051" y="85.1182" width="53.9303" height="33.9303" rx="4.96513" fill="white" shape-rendering="crispEdges"/>
<path d="M219.04 100.857V100.153C220.274 100.057 221.013 99.3189 221.013 98.2849C221.013 97.3986 220.396 96.9033 219.371 96.6861L218.502 96.5036C218.111 96.4254 217.754 96.243 217.754 95.8433C217.754 95.3914 218.128 95.1047 218.684 95.1047C219.284 95.1047 219.692 95.487 219.727 96.0605H220.935C220.856 95.0004 220.109 94.2879 219.04 94.1489V93.419H218.25V94.1489C217.233 94.2966 216.529 95.0004 216.529 95.9389C216.529 96.9815 217.25 97.3812 218.093 97.5724L218.98 97.7548C219.423 97.8504 219.727 98.0677 219.727 98.4413C219.727 98.9192 219.266 99.1885 218.667 99.1885C217.946 99.1885 217.537 98.8062 217.52 98.1893H216.312C216.39 99.258 217.103 99.9879 218.25 100.136V100.857H219.04ZM223.84 100.17C225.317 100.17 226.064 99.1712 226.064 98.1632C226.064 97.1727 225.395 96.2082 223.996 96.2082C223.649 96.2082 223.31 96.2951 223.014 96.4863L223.197 95.2872H225.717V94.2097H222.319L221.807 97.5029L222.797 97.8244C222.98 97.4247 223.327 97.2335 223.796 97.2335C224.509 97.2335 224.813 97.7027 224.813 98.1632C224.813 98.6411 224.544 99.093 223.831 99.093C223.284 99.093 222.884 98.8062 222.815 98.2936H221.607C221.642 99.3884 222.589 100.17 223.84 100.17ZM230.811 99.0061H228.544L229.43 98.0503C230.455 97.0163 230.716 96.5645 230.716 95.852C230.716 94.8614 229.856 94.1229 228.683 94.1229C227.423 94.1229 226.536 94.957 226.536 96.13H227.709C227.709 95.5565 228.057 95.2003 228.622 95.2003C229.134 95.2003 229.456 95.5218 229.456 95.9997C229.456 96.5123 229.169 96.8773 228.491 97.5724L226.71 99.3971V100.083H230.811V99.0061ZM233.221 99.6143C233.221 98.8757 232.89 98.4934 232.334 98.4934C231.891 98.4934 231.552 98.7975 231.552 99.2494C231.552 99.6404 231.848 99.9619 232.239 99.9619C232.291 99.9619 232.343 99.9619 232.421 99.9358C232.352 100.405 231.917 100.7 231.274 100.709V101.352C232.369 101.343 233.221 100.657 233.221 99.6143ZM236.076 100.153C237.414 100.153 238.352 99.258 238.352 98.1285C238.352 97.0163 237.51 96.2256 236.311 96.2256C236.215 96.2256 236.119 96.2343 236.024 96.269L237.71 94.2097H236.345L234.573 96.3472C234.025 96.9989 233.808 97.4681 233.808 98.2067C233.808 99.258 234.738 100.153 236.076 100.153ZM236.085 99.1451C235.537 99.1451 235.068 98.7975 235.068 98.1632C235.068 97.4768 235.537 97.1727 236.085 97.1727C236.632 97.1727 237.101 97.5029 237.101 98.1719C237.101 98.7975 236.632 99.1451 236.085 99.1451ZM241.074 100.17C242.551 100.17 243.298 99.1712 243.298 98.1632C243.298 97.1727 242.629 96.2082 241.23 96.2082C240.882 96.2082 240.544 96.2951 240.248 96.4863L240.431 95.2872H242.95V94.2097H239.553L239.04 97.5029L240.031 97.8244C240.213 97.4247 240.561 97.2335 241.03 97.2335C241.743 97.2335 242.047 97.7027 242.047 98.1632C242.047 98.6411 241.777 99.093 241.065 99.093C240.518 99.093 240.118 98.8062 240.048 98.2936H238.841C238.875 99.3884 239.822 100.17 241.074 100.17ZM247.751 94.9136V94.2097H243.624V95.2872H246.413L244.284 100.083H245.579L247.751 94.9136ZM249.148 99.3102C249.148 98.8236 248.817 98.4847 248.339 98.4847C247.862 98.4847 247.523 98.8236 247.523 99.3102C247.523 99.7881 247.862 100.127 248.339 100.127C248.817 100.127 249.148 99.7881 249.148 99.3102ZM249.705 97.1553C249.705 99.093 250.504 100.17 251.973 100.17C253.441 100.17 254.249 99.093 254.249 97.1553C254.249 95.209 253.424 94.1229 251.973 94.1229C250.522 94.1229 249.705 95.209 249.705 97.1553ZM250.948 97.1553C250.948 95.8867 251.313 95.2003 251.973 95.2003C252.642 95.2003 253.007 95.8867 253.007 97.1553C253.007 98.4152 252.642 99.093 251.973 99.093C251.295 99.093 250.948 98.4152 250.948 97.1553ZM255.042 97.1553C255.042 99.093 255.842 100.17 257.31 100.17C258.779 100.17 259.587 99.093 259.587 97.1553C259.587 95.209 258.761 94.1229 257.31 94.1229C255.859 94.1229 255.042 95.209 255.042 97.1553ZM256.285 97.1553C256.285 95.8867 256.65 95.2003 257.31 95.2003C257.979 95.2003 258.344 95.8867 258.344 97.1553C258.344 98.4152 257.979 99.093 257.31 99.093C256.632 99.093 256.285 98.4152 256.285 97.1553Z" fill="#0CAF60"/>
<path d="M228.039 111.083H228.728V106.627H228.094V110.016L225.804 106.627H225.06V111.083H225.693V107.602L228.039 111.083ZM230.993 111.146C231.769 111.146 232.334 110.705 232.495 109.973H231.875C231.769 110.401 231.447 110.655 230.981 110.655C230.429 110.655 230.094 110.264 230.044 109.594H232.495C232.607 108.526 231.955 107.732 230.975 107.732C230.069 107.732 229.405 108.446 229.405 109.42C229.405 110.457 230.044 111.146 230.993 111.146ZM230.962 108.204C231.471 108.204 231.8 108.57 231.831 109.178H230.05C230.118 108.564 230.46 108.204 230.962 108.204ZM235.005 110.475C234.875 110.537 234.745 110.562 234.596 110.562C234.261 110.562 234.043 110.401 234.043 109.948V108.328H235.037V107.794H234.043V106.82H233.417V107.794H232.69V108.328H233.417V110.09C233.417 110.817 233.839 111.146 234.447 111.146C234.646 111.146 234.813 111.115 235.005 111.028V110.475ZM239.539 110.103C239.539 109.631 239.228 109.346 238.577 109.228L238.018 109.122C237.621 109.048 237.453 108.924 237.453 108.657C237.453 108.371 237.72 108.204 238.117 108.204C238.558 108.204 238.85 108.433 238.887 108.831H239.489C239.433 108.154 238.899 107.732 238.111 107.732C237.348 107.732 236.845 108.135 236.845 108.713C236.845 109.209 237.186 109.519 237.794 109.637L238.328 109.737C238.738 109.817 238.905 109.935 238.905 110.208C238.905 110.519 238.614 110.674 238.173 110.674C237.67 110.674 237.341 110.419 237.317 110.01H236.715C236.777 110.717 237.292 111.146 238.161 111.146C239.036 111.146 239.539 110.748 239.539 110.103ZM242.215 111.083H242.737V108.973C242.737 108.191 242.265 107.732 241.452 107.732C240.682 107.732 240.155 108.222 240.124 108.961H240.695C240.713 108.502 240.992 108.229 241.452 108.229C241.886 108.229 242.141 108.495 242.141 108.967V109.209C241.874 109.178 241.719 109.172 241.526 109.172C240.546 109.172 240.031 109.507 240.031 110.153C240.031 110.755 240.477 111.146 241.16 111.146C241.644 111.146 242.01 110.941 242.215 110.575V111.083ZM240.626 110.134C240.626 109.749 240.937 109.563 241.563 109.563C241.725 109.563 241.899 109.569 242.141 109.6V109.867C242.141 110.37 241.812 110.699 241.284 110.699C240.881 110.699 240.626 110.475 240.626 110.134ZM244.208 111.083V106.627H243.575V111.083H244.208ZM246.431 111.146C247.207 111.146 247.771 110.705 247.933 109.973H247.312C247.207 110.401 246.884 110.655 246.418 110.655C245.866 110.655 245.531 110.264 245.481 109.594H247.933C248.044 108.526 247.393 107.732 246.412 107.732C245.506 107.732 244.842 108.446 244.842 109.42C244.842 110.457 245.481 111.146 246.431 111.146ZM246.4 108.204C246.909 108.204 247.238 108.57 247.269 109.178H245.487C245.556 108.564 245.897 108.204 246.4 108.204ZM251.206 110.103C251.206 109.631 250.896 109.346 250.244 109.228L249.685 109.122C249.288 109.048 249.12 108.924 249.12 108.657C249.12 108.371 249.387 108.204 249.785 108.204C250.225 108.204 250.517 108.433 250.554 108.831H251.156C251.1 108.154 250.567 107.732 249.778 107.732C249.015 107.732 248.512 108.135 248.512 108.713C248.512 109.209 248.854 109.519 249.462 109.637L249.996 109.737C250.405 109.817 250.573 109.935 250.573 110.208C250.573 110.519 250.281 110.674 249.84 110.674C249.338 110.674 249.009 110.419 248.984 110.01H248.382C248.444 110.717 248.959 111.146 249.828 111.146C250.703 111.146 251.206 110.748 251.206 110.103Z" fill="#A0AEC0"/>
</g>
</g>
<defs>
<filter id="filter0_d_101_19894" x="232.12" y="122.496" width="12.4124" height="12.3894" filterUnits="userSpaceOnUse" color-interpolation-filters="sRGB">
<feFlood flood-opacity="0" result="BackgroundImageFix"/>
<feColorMatrix in="SourceAlpha" type="matrix" values="0 0 0 0 0 0 0 0 0 0 0 0 0 0 0 0 0 0 127 0" result="hardAlpha"/>
<feOffset dy="1.24128"/>
<feGaussianBlur stdDeviation="1.24128"/>
<feComposite in2="hardAlpha" operator="out"/>
<feColorMatrix type="matrix" values="0 0 0 0 0.101961 0 0 0 0 0.12549 0 0 0 0 0.172549 0 0 0 0.05 0"/>
<feBlend mode="normal" in2="BackgroundImageFix" result="effect1_dropShadow_101_19894"/>
<feBlend mode="normal" in="SourceGraphic" in2="effect1_dropShadow_101_19894" result="shape"/>
</filter>
<filter id="filter1_d_101_19894" x="186.225" y="65.2576" width="103.582" height="83.5815" filterUnits="userSpaceOnUse" color-interpolation-filters="sRGB">
<feFlood flood-opacity="0" result="BackgroundImageFix"/>
<feColorMatrix in="SourceAlpha" type="matrix" values="0 0 0 0 0 0 0 0 0 0 0 0 0 0 0 0 0 0 127 0" result="hardAlpha"/>
<feOffset dy="4.96513"/>
<feGaussianBlur stdDeviation="12.4128"/>
<feComposite in2="hardAlpha" operator="out"/>
<feColorMatrix type="matrix" values="0 0 0 0 0.101961 0 0 0 0 0.12549 0 0 0 0 0.172549 0 0 0 0.09 0"/>
<feBlend mode="normal" in2="BackgroundImageFix" result="effect1_dropShadow_101_19894"/>
<feBlend mode="normal" in="SourceGraphic" in2="effect1_dropShadow_101_19894" result="shape"/>
</filter>
<linearGradient id="paint0_linear_101_19894" x1="238.327" y1="70.3134" x2="238.327" y2="231.06" gradientUnits="userSpaceOnUse">
<stop stop-color="#0CAF60"/>
<stop offset="1" stop-color="white"/>
</linearGradient>
<clipPath id="clip0_101_19894">
<rect width="445" height="245" fill="white"/>
</clipPath>
</defs>
</svg>
