<svg width="258" height="156" viewBox="0 0 258 156" fill="none" xmlns="http://www.w3.org/2000/svg">
<rect width="258" height="156" rx="10" fill="white"/>
<path d="M22.8887 31.6162V25.109H25.5059V23.0747H18.0232V25.109H20.6403V31.6162H22.8887ZM28.2499 28.6659C28.2499 27.2503 29.1659 27.1432 30.6053 27.286V25.1684C29.5822 25.1684 28.5711 25.5967 28.0833 26.3462V25.216H26.2156V31.6162H28.2499V28.6659ZM35.3557 31.6162H36.9974V27.6667C36.9974 26.0488 35.9624 25.0971 34.2018 25.0971C32.6196 25.0971 31.5132 26.0726 31.3943 27.5596H33.2263C33.2977 27.0005 33.6308 26.6912 34.1899 26.6912C34.7609 26.6912 35.0821 27.0005 35.0821 27.5596V27.8689C34.8085 27.8213 34.4873 27.7975 34.1423 27.7975C32.3103 27.7975 31.2991 28.4756 31.2991 29.7247C31.2991 30.9381 32.1913 31.7352 33.5237 31.7352C34.3446 31.7352 34.9037 31.5091 35.3557 30.9976V31.6162ZM33.2144 29.6652C33.2144 29.2251 33.5832 28.999 34.2732 28.999C34.5349 28.999 34.7728 29.0228 35.0821 29.0823V29.4868C35.0821 30.0102 34.6776 30.3314 33.9996 30.3314C33.4999 30.3314 33.2144 30.0816 33.2144 29.6652ZM41.0249 31.6162V26.9886H42.5953V25.216H41.0249V25.0376C41.0249 24.7402 41.2986 24.6331 41.6436 24.6331C41.8577 24.6331 42.1194 24.6807 42.286 24.7521V23.1461C41.9885 23.0152 41.596 22.9319 41.132 22.9319C39.7045 22.9319 38.9907 23.6695 38.9907 24.99V25.216H37.8011V26.9886H38.9907V31.6162H41.0249ZM51.1159 23.729C51.1159 23.0509 50.5806 22.5632 49.8074 22.5632C49.0341 22.5632 48.4988 23.0509 48.4988 23.729C48.4988 24.3952 49.0341 24.8829 49.8074 24.8829C50.5806 24.8829 51.1159 24.3952 51.1159 23.729ZM46.4526 31.6162V26.9886H48.0229V25.216H46.4526V25.0376C46.4526 24.7402 46.7262 24.6331 47.0712 24.6331C47.2854 24.6331 47.5471 24.6807 47.7136 24.7521V23.1461C47.4162 23.0152 47.0236 22.9319 46.5597 22.9319C45.1321 22.9319 44.4184 23.6695 44.4184 24.99V25.216H43.2287V26.9886H44.4184V31.6162H46.4526ZM50.8423 31.6162V25.216H48.8081V31.6162H50.8423ZM55.2184 31.7352C57.0385 31.7352 58.2876 30.5931 58.4661 28.7611H56.3009C56.2534 29.4868 55.8608 29.915 55.2303 29.915C54.5046 29.915 54.1001 29.3797 54.1001 28.4161C54.1001 27.4763 54.5165 26.9291 55.2303 26.9291C55.8489 26.9291 56.2653 27.3692 56.3009 28.0711H58.4661C58.2876 26.2867 56.979 25.0971 55.2184 25.0971C53.3745 25.0971 51.9945 26.5127 51.9945 28.4161C51.9945 30.3671 53.315 31.7352 55.2184 31.7352ZM69.3318 28.8206C69.3318 27.5834 68.5229 26.8339 67.0001 26.5365L65.3466 26.2153C64.8945 26.132 64.5138 25.906 64.5138 25.5253C64.5138 25.0614 64.9183 24.7045 65.5845 24.7045C66.3339 24.7045 66.8574 25.2041 66.9169 25.9774H69.1891C69.0582 24.1335 67.595 22.9676 65.5607 22.9676C63.6454 22.9676 62.2416 24.0859 62.2416 25.68C62.2416 27.0599 63.1458 27.857 64.5138 28.1187L66.0722 28.4161C66.5719 28.5113 66.9407 28.7849 66.9407 29.1537C66.9407 29.689 66.4291 29.9864 65.6559 29.9864C64.728 29.9864 64.1926 29.4749 64.1688 28.6659H61.8966C62.0513 30.5574 63.4788 31.7352 65.7034 31.7352C67.928 31.7352 69.3318 30.5812 69.3318 28.8206ZM73.4791 31.7352C75.3706 31.7352 76.822 30.2481 76.822 28.4161C76.822 26.5841 75.3706 25.0971 73.4791 25.0971C71.5876 25.0971 70.1363 26.5841 70.1363 28.4161C70.1363 30.2481 71.5876 31.7352 73.4791 31.7352ZM73.4791 29.915C72.8486 29.915 72.2538 29.4154 72.2538 28.4161C72.2538 27.4168 72.8486 26.9291 73.4791 26.9291C74.1096 26.9291 74.7045 27.4168 74.7045 28.4161C74.7045 29.4154 74.1096 29.915 73.4791 29.915ZM81.7731 28.8682C81.7731 29.5938 81.2735 29.915 80.869 29.915C80.298 29.915 79.953 29.5701 79.953 28.8682V25.216H77.9188V29.2489C77.9188 30.9381 78.8824 31.7352 80.1553 31.7352C80.9047 31.7352 81.5828 31.4021 81.9397 30.9262V31.6162H83.8074V25.216H81.7731V28.8682ZM87.3919 28.6659C87.3919 27.2503 88.3079 27.1432 89.7474 27.286V25.1684C88.7243 25.1684 87.7131 25.5967 87.2254 26.3462V25.216H85.3576V31.6162H87.3919V28.6659ZM93.5118 31.7352C95.3319 31.7352 96.581 30.5931 96.7595 28.7611H94.5943C94.5468 29.4868 94.1542 29.915 93.5237 29.915C92.798 29.915 92.3935 29.3797 92.3935 28.4161C92.3935 27.4763 92.8099 26.9291 93.5237 26.9291C94.1423 26.9291 94.5586 27.3692 94.5943 28.0711H96.7595C96.581 26.2867 95.2724 25.0971 93.5118 25.0971C91.6679 25.0971 90.2879 26.5127 90.2879 28.4161C90.2879 30.3671 91.6084 31.7352 93.5118 31.7352ZM100.8 31.7233C102.394 31.7233 103.524 30.9024 103.917 29.4392H101.882C101.704 29.9032 101.323 30.1411 100.752 30.1411C100.098 30.1411 99.7173 29.7366 99.6103 28.9277H103.952C104.321 26.822 102.906 25.0971 100.788 25.0971C98.8846 25.0971 97.5046 26.4889 97.5046 28.4042C97.5046 30.3909 98.8251 31.7233 100.8 31.7233ZM100.74 26.596C101.347 26.596 101.752 27.0124 101.775 27.6548H99.6341C99.7768 26.941 100.134 26.596 100.74 26.596Z" fill="#111827"/>
<rect x="170.39" y="17.6938" width="69.7666" height="17.8444" rx="2.97406" fill="#F9FAFB"/>
<path d="M180.844 29.6157H181.543L183.238 25.5264V29.6157H183.996V24.2773H182.985L181.201 28.612L179.409 24.2773H178.405V29.6157H179.156V25.5338L180.844 29.6157ZM186.742 29.6901C187.857 29.6901 188.675 28.8127 188.675 27.6454C188.675 26.4781 187.857 25.6007 186.742 25.6007C185.626 25.6007 184.808 26.4781 184.808 27.6454C184.808 28.8127 185.626 29.6901 186.742 29.6901ZM186.742 29.0283C186.095 29.0283 185.589 28.5079 185.589 27.6454C185.589 26.7829 186.095 26.2699 186.742 26.2699C187.388 26.2699 187.902 26.7829 187.902 27.6454C187.902 28.5079 187.388 29.0283 186.742 29.0283ZM190.191 27.3926C190.191 26.6937 190.622 26.2625 191.136 26.2625C191.693 26.2625 191.991 26.6417 191.991 27.3183V29.6157H192.742V27.0655C192.742 26.1212 192.206 25.6007 191.396 25.6007C190.853 25.6007 190.407 25.8907 190.139 26.3294V25.6751H189.44V29.6157H190.191V27.3926ZM195.947 28.8871C195.791 28.9614 195.635 28.9912 195.457 28.9912C195.055 28.9912 194.795 28.7979 194.795 28.2551V26.3145H195.985V25.6751H194.795V24.5078H194.044V25.6751H193.174V26.3145H194.044V28.4261C194.044 29.296 194.55 29.6901 195.278 29.6901C195.516 29.6901 195.717 29.6529 195.947 29.5488V28.8871ZM197.452 27.3926C197.452 26.6937 197.883 26.2625 198.396 26.2625C198.954 26.2625 199.251 26.6417 199.251 27.3183V29.6157H200.002V27.0655C200.002 26.1212 199.467 25.6007 198.657 25.6007C198.114 25.6007 197.712 25.8833 197.452 26.3071V24.2773H196.701V29.6157H197.452V27.3926Z" fill="#718096"/>
<g filter="url(#filter0_d_101_19946)">
<rect x="206.772" y="19.1807" width="31.8963" height="14.8703" rx="2.97406" fill="white" shape-rendering="crispEdges"/>
<path d="M217.368 29.6157H218.215L219.606 24.2773H218.803L217.777 28.3964L216.669 24.2773H215.821L214.698 28.3889L213.672 24.2773H212.869L214.26 29.6157H215.1L216.238 25.4297L217.368 29.6157ZM221.564 29.6901C222.493 29.6901 223.17 29.1622 223.363 28.2848H222.62C222.493 28.7979 222.107 29.1027 221.549 29.1027C220.887 29.1027 220.486 28.6343 220.426 27.8313H223.363C223.497 26.5524 222.716 25.6007 221.542 25.6007C220.456 25.6007 219.66 26.4558 219.66 27.6231C219.66 28.8648 220.426 29.6901 221.564 29.6901ZM221.527 26.1658C222.136 26.1658 222.53 26.6045 222.568 27.3331H220.434C220.515 26.597 220.924 26.1658 221.527 26.1658ZM225.71 29.6901C226.639 29.6901 227.316 29.1622 227.509 28.2848H226.766C226.639 28.7979 226.253 29.1027 225.695 29.1027C225.033 29.1027 224.632 28.6343 224.572 27.8313H227.509C227.643 26.5524 226.862 25.6007 225.688 25.6007C224.602 25.6007 223.806 26.4558 223.806 27.6231C223.806 28.8648 224.572 29.6901 225.71 29.6901ZM225.673 26.1658C226.282 26.1658 226.676 26.6045 226.714 27.3331H224.58C224.661 26.597 225.07 26.1658 225.673 26.1658ZM229.058 29.6157V27.7495L230.835 29.6157H231.802L229.809 27.5859L231.631 25.6751H230.746L229.058 27.4372V24.2773H228.308V29.6157H229.058Z" fill="#0CAF60"/>
</g>
<line x1="75.4671" y1="139.363" x2="75.4671" y2="47.6891" stroke="#F1F2F4" stroke-width="0.743516" stroke-linecap="round" stroke-dasharray="4.46 4.46"/>
<line x1="127.513" y1="139.363" x2="127.513" y2="47.6891" stroke="#F1F2F4" stroke-width="0.743516" stroke-linecap="round" stroke-dasharray="4.46 4.46"/>
<line x1="179.559" y1="139.363" x2="179.559" y2="47.6891" stroke="#F1F2F4" stroke-width="0.743516" stroke-linecap="round" stroke-dasharray="4.46 4.46"/>
<line x1="232.349" y1="139.363" x2="232.349" y2="47.6891" stroke="#F1F2F4" stroke-width="0.743516" stroke-linecap="round" stroke-dasharray="4.46 4.46"/>
<path d="M21.4314 57.4502C23.4746 57.4502 24.7416 55.9513 24.6613 53.8635H21.3601V54.9431H23.2159C23.0374 55.7372 22.4397 56.2993 21.4939 56.2993C20.2091 56.2993 19.5221 55.3535 19.5221 54.1223C19.5221 52.7482 20.3073 51.9899 21.3422 51.9899C22.1988 51.9899 22.7876 52.4806 22.9839 53.1319H24.581C24.1616 51.74 23.0018 50.7764 21.3779 50.7764C19.5043 50.7764 18.1302 52.1951 18.1302 54.0866C18.1302 56.0673 19.5756 57.4502 21.4314 57.4502ZM27.6047 57.4056C28.9876 57.4056 30.0226 56.3171 30.0226 54.9342C30.0226 53.5423 28.9876 52.4627 27.6047 52.4627C26.2218 52.4627 25.1868 53.5423 25.1868 54.9342C25.1868 56.3171 26.2218 57.4056 27.6047 57.4056ZM27.6047 56.3082C26.9891 56.3082 26.4627 55.8175 26.4627 54.9342C26.4627 54.0509 26.9891 53.5691 27.6047 53.5691C28.2203 53.5691 28.7467 54.0509 28.7467 54.9342C28.7467 55.8175 28.2203 56.3082 27.6047 56.3082ZM32.9197 57.4056C34.3026 57.4056 35.3376 56.3171 35.3376 54.9342C35.3376 53.5423 34.3026 52.4627 32.9197 52.4627C31.5367 52.4627 30.5018 53.5423 30.5018 54.9342C30.5018 56.3171 31.5367 57.4056 32.9197 57.4056ZM32.9197 56.3082C32.304 56.3082 31.7776 55.8175 31.7776 54.9342C31.7776 54.0509 32.304 53.5691 32.9197 53.5691C33.5353 53.5691 34.0617 54.0509 34.0617 54.9342C34.0617 55.8175 33.5353 56.3082 32.9197 56.3082ZM38.0672 59.1276C39.4769 59.1276 40.3335 58.3603 40.3335 57.0934V52.552H39.2003V53.2033C38.8524 52.7126 38.3706 52.4627 37.7282 52.4627C36.5504 52.4627 35.7296 53.4174 35.7296 54.8003C35.7296 56.1476 36.604 57.138 37.7728 57.138C38.3527 57.138 38.8434 56.8703 39.1022 56.4153V57.1112C39.1022 57.7982 38.7453 58.164 38.0583 58.164C37.4694 58.164 37.1215 57.8785 37.0679 57.3343H35.8724C35.9259 58.4317 36.7824 59.1276 38.0672 59.1276ZM36.9698 54.8003C36.9698 54.0241 37.3802 53.5334 38.0137 53.5334C38.665 53.5334 39.0933 54.033 39.0933 54.8093C39.0933 55.5587 38.665 56.0673 38.0137 56.0673C37.3713 56.0673 36.9698 55.5766 36.9698 54.8003ZM42.7018 57.3164V50.9103H41.4527V57.3164H42.7018ZM45.8839 57.3967C47.0438 57.3967 47.8735 56.7811 48.1412 55.7015H46.9099C46.7672 56.1744 46.4014 56.442 45.8571 56.442C45.2237 56.442 44.8489 56.0138 44.7686 55.2375H48.1501C48.3732 53.6851 47.3739 52.4627 45.866 52.4627C44.492 52.4627 43.5017 53.4977 43.5017 54.9163C43.5017 56.4063 44.4563 57.3967 45.8839 57.3967ZM45.8393 53.3728C46.4281 53.3728 46.8029 53.7921 46.8386 54.4524H44.7865C44.8935 53.7475 45.2593 53.3728 45.8393 53.3728Z" fill="#111827"/>
<path d="M209.77 55.987V55.2018H208.949V51.285H208.254L205.149 55.3535V55.987H208.048V57.3164H208.949V55.987H209.77ZM206.157 55.2018L208.048 52.6501V55.2018H206.157ZM214.947 55.6212C214.947 54.8896 214.456 54.4078 213.822 54.1758C214.322 53.9527 214.715 53.4799 214.715 52.8642C214.715 51.8828 213.885 51.1958 212.743 51.1958C211.583 51.1958 210.762 51.8828 210.762 52.8642C210.762 53.4799 211.146 53.9527 211.654 54.1758C211.021 54.4078 210.521 54.8896 210.521 55.6212C210.521 56.674 211.422 57.3967 212.743 57.3967C214.054 57.3967 214.947 56.674 214.947 55.6212ZM211.69 52.891C211.69 52.2932 212.118 51.9185 212.743 51.9185C213.358 51.9185 213.787 52.2932 213.787 52.891C213.787 53.4799 213.358 53.8368 212.743 53.8368C212.118 53.8368 211.69 53.4799 211.69 52.891ZM211.467 55.6033C211.467 54.952 211.984 54.5594 212.743 54.5594C213.492 54.5594 214.019 54.952 214.019 55.6033C214.019 56.2725 213.492 56.674 212.743 56.674C211.984 56.674 211.467 56.2725 211.467 55.6033ZM217.141 56.9328C217.141 56.335 216.874 55.9781 216.383 55.9781C216.017 55.9781 215.732 56.2279 215.732 56.6116C215.732 56.9417 215.982 57.2183 216.321 57.2183C216.383 57.2183 216.437 57.2093 216.517 57.1826C216.463 57.6198 216.071 57.932 215.491 57.9499V58.4584C216.472 58.4406 217.141 57.7804 217.141 56.9328ZM220.059 57.3967C221.344 57.3967 222.218 56.6651 222.218 55.5944C222.218 54.8985 221.763 54.381 220.969 54.1669C221.594 53.8724 221.942 53.3996 221.942 52.8107C221.942 51.8649 221.192 51.1958 220.032 51.1958C218.935 51.1958 218.096 51.9363 218.069 52.9267H218.944C218.97 52.3111 219.381 51.9185 219.997 51.9185C220.603 51.9185 221.005 52.3021 221.005 52.8732C221.005 53.462 220.559 53.8546 219.881 53.8546H219.301V54.5773H219.925C220.755 54.5773 221.281 54.9788 221.281 55.6123C221.281 56.2636 220.817 56.674 220.059 56.674C219.327 56.674 218.846 56.2547 218.81 55.6033H217.927C217.936 56.6651 218.81 57.3967 220.059 57.3967ZM227.475 55.987V55.2018H226.654V51.285H225.959L222.854 55.3535V55.987H225.753V57.3164H226.654V55.987H227.475ZM223.862 55.2018L225.753 52.6501V55.2018H223.862ZM230.234 57.4056C231.635 57.4056 232.411 56.4688 232.411 55.3892C232.411 54.3632 231.689 53.4353 230.359 53.4353C229.949 53.4353 229.565 53.5602 229.226 53.8278L229.494 52.088H232.063V51.285H228.842L228.307 54.6487L229.039 54.8806C229.288 54.4435 229.69 54.2204 230.225 54.2204C231.028 54.2204 231.474 54.7647 231.474 55.3892C231.474 56.0762 231.064 56.5937 230.234 56.5937C229.565 56.5937 229.074 56.2101 229.012 55.5677H228.111C228.155 56.6383 229.056 57.4056 230.234 57.4056Z" fill="#718096"/>
<rect x="17.8447" y="64.2905" width="214.876" height="5.94813" rx="1.48703" fill="#F9FAFB"/>
<rect x="17.8447" y="64.2905" width="194.731" height="5.94813" rx="1.48703" fill="#0CAF60"/>
<path d="M23.4211 87.1178C23.4211 86.172 22.8144 85.6545 21.6902 85.4315L20.5928 85.2084C20.1288 85.1192 19.7273 84.9318 19.7273 84.4946C19.7273 84.0485 20.102 83.6738 20.7623 83.6738C21.4404 83.6738 21.9043 84.1288 21.9489 84.798H23.323C23.2337 83.4597 22.1809 82.621 20.7444 82.621C19.3615 82.621 18.3533 83.4418 18.3533 84.5839C18.3533 85.6456 19.1028 86.172 20.0753 86.3594L21.1281 86.5646C21.6723 86.6717 21.9846 86.9126 21.9846 87.3141C21.9846 87.8315 21.4939 88.1349 20.8069 88.1349C19.9771 88.1349 19.5221 87.6799 19.4864 86.975H18.1124C18.2105 88.3312 19.2187 89.1966 20.8337 89.1966C22.4397 89.1966 23.4211 88.3401 23.4211 87.1178ZM26.4197 89.1966C27.8027 89.1966 28.8376 88.1081 28.8376 86.7252C28.8376 85.3333 27.8027 84.2538 26.4197 84.2538C25.0368 84.2538 24.0018 85.3333 24.0018 86.7252C24.0018 88.1081 25.0368 89.1966 26.4197 89.1966ZM26.4197 88.0992C25.8041 88.0992 25.2777 87.6085 25.2777 86.7252C25.2777 85.8419 25.8041 85.3601 26.4197 85.3601C27.0353 85.3601 27.5618 85.8419 27.5618 86.7252C27.5618 87.6085 27.0353 88.0992 26.4197 88.0992ZM31.6366 89.1966C32.9124 89.1966 33.8046 88.3847 33.9474 87.0732H32.6448C32.5734 87.7245 32.2076 88.0992 31.6366 88.0992C30.9852 88.0992 30.5837 87.5817 30.5837 86.7252C30.5837 85.8776 30.9942 85.3512 31.6366 85.3512C32.1986 85.3512 32.5823 85.7438 32.6448 86.3772H33.9474C33.7957 85.0924 32.8767 84.2538 31.6366 84.2538C30.2982 84.2538 29.3168 85.2976 29.3168 86.7252C29.3168 88.1795 30.2625 89.1966 31.6366 89.1966ZM36.1801 83.2366C36.1801 82.7994 35.8411 82.4872 35.3503 82.4872C34.8685 82.4872 34.5295 82.7994 34.5295 83.2366C34.5295 83.656 34.8685 83.9682 35.3503 83.9682C35.8411 83.9682 36.1801 83.656 36.1801 83.2366ZM35.9838 89.1074V84.343H34.7436V89.1074H35.9838ZM39.9247 89.1074H40.9329V86.1096C40.9329 84.9408 40.2013 84.2538 38.9522 84.2538C37.8012 84.2538 37.0072 84.9675 36.9358 86.065H38.051C38.0957 85.5296 38.4169 85.2173 38.9522 85.2173C39.4697 85.2173 39.773 85.5296 39.773 86.065V86.3505C39.4786 86.3148 39.2466 86.2969 38.979 86.2969C37.5871 86.2969 36.8376 86.7966 36.8376 87.7245C36.8376 88.6167 37.4979 89.1966 38.4882 89.1966C39.1396 89.1966 39.6124 88.9647 39.9247 88.5186V89.1074ZM38.0064 87.6888C38.0064 87.2605 38.3544 87.0375 39.0593 87.0375C39.2734 87.0375 39.4786 87.0553 39.773 87.0999V87.439C39.773 87.9921 39.3894 88.3401 38.7559 88.3401C38.2919 88.3401 38.0064 88.0903 38.0064 87.6888ZM43.2507 89.1074V82.7013H42.0016V89.1074H43.2507Z" fill="#111827"/>
<path d="M206.867 89.1877C208.152 89.1877 209.027 88.4561 209.027 87.3854C209.027 86.6895 208.572 86.172 207.777 85.9579C208.402 85.6635 208.75 85.1906 208.75 84.6017C208.75 83.656 208.001 82.9868 206.841 82.9868C205.743 82.9868 204.905 83.7273 204.878 84.7177H205.752C205.779 84.1021 206.189 83.7095 206.805 83.7095C207.412 83.7095 207.813 84.0932 207.813 84.6642C207.813 85.253 207.367 85.6456 206.689 85.6456H206.109V86.3683H206.734C207.563 86.3683 208.09 86.7698 208.09 87.4033C208.09 88.0546 207.626 88.465 206.867 88.465C206.136 88.465 205.654 88.0457 205.618 87.3944H204.735C204.744 88.4561 205.618 89.1877 206.867 89.1877ZM209.894 86.1006C209.894 88.0992 210.67 89.1966 212.116 89.1966C213.561 89.1966 214.346 88.0992 214.346 86.1006C214.346 84.1021 213.543 82.9868 212.116 82.9868C210.688 82.9868 209.894 84.1021 209.894 86.1006ZM210.822 86.1006C210.822 84.5928 211.286 83.7987 212.116 83.7987C212.963 83.7987 213.418 84.5928 213.418 86.1006C213.418 87.5996 212.963 88.3847 212.116 88.3847C211.268 88.3847 210.822 87.5906 210.822 86.1006ZM216.453 88.7238C216.453 88.126 216.185 87.7691 215.695 87.7691C215.329 87.7691 215.043 88.0189 215.043 88.4026C215.043 88.7327 215.293 89.0093 215.632 89.0093C215.695 89.0093 215.748 89.0004 215.829 88.9736C215.775 89.4108 215.382 89.7231 214.803 89.7409V90.2495C215.784 90.2316 216.453 89.5714 216.453 88.7238ZM217.187 86.1006C217.187 88.0992 217.963 89.1966 219.408 89.1966C220.854 89.1966 221.639 88.0992 221.639 86.1006C221.639 84.1021 220.836 82.9868 219.408 82.9868C217.981 82.9868 217.187 84.1021 217.187 86.1006ZM218.115 86.1006C218.115 84.5928 218.579 83.7987 219.408 83.7987C220.256 83.7987 220.711 84.5928 220.711 86.1006C220.711 87.5996 220.256 88.3847 219.408 88.3847C218.561 88.3847 218.115 87.5906 218.115 86.1006ZM222.511 86.1006C222.511 88.0992 223.287 89.1966 224.732 89.1966C226.178 89.1966 226.963 88.0992 226.963 86.1006C226.963 84.1021 226.16 82.9868 224.732 82.9868C223.305 82.9868 222.511 84.1021 222.511 86.1006ZM223.438 86.1006C223.438 84.5928 223.902 83.7987 224.732 83.7987C225.58 83.7987 226.035 84.5928 226.035 86.1006C226.035 87.5996 225.58 88.3847 224.732 88.3847C223.885 88.3847 223.438 87.5906 223.438 86.1006ZM227.834 86.1006C227.834 88.0992 228.61 89.1966 230.056 89.1966C231.501 89.1966 232.286 88.0992 232.286 86.1006C232.286 84.1021 231.483 82.9868 230.056 82.9868C228.628 82.9868 227.834 84.1021 227.834 86.1006ZM228.762 86.1006C228.762 84.5928 229.226 83.7987 230.056 83.7987C230.903 83.7987 231.358 84.5928 231.358 86.1006C231.358 87.5996 230.903 88.3847 230.056 88.3847C229.208 88.3847 228.762 87.5906 228.762 86.1006Z" fill="#718096"/>
<rect x="17.8447" y="96.0815" width="214.876" height="5.94813" rx="1.48703" fill="#F9FAFB"/>
<rect x="17.8447" y="96.0815" width="109.676" height="5.94813" rx="1.48703" fill="#FFD023"/>
<path d="M20.7801 120.9C22.7698 120.9 24.0456 119.526 24.0456 117.662C24.0456 115.797 22.8144 114.494 20.7801 114.494H18.505V120.9H20.7801ZM19.8611 115.663H20.7087C21.9846 115.663 22.6538 116.386 22.6538 117.662C22.6538 118.991 21.9846 119.732 20.7087 119.732H19.8611V115.663ZM26.3169 115.03C26.3169 114.592 25.9779 114.28 25.4871 114.28C25.0053 114.28 24.6663 114.592 24.6663 115.03C24.6663 115.449 25.0053 115.761 25.4871 115.761C25.9779 115.761 26.3169 115.449 26.3169 115.03ZM26.1206 120.9V116.136H24.8804V120.9H26.1206ZM28.4644 118.59C28.4644 117.537 29.1693 117.287 30.2221 117.367V116.082C29.4548 116.082 28.7143 116.448 28.3663 117.055V116.136H27.2242V120.9H28.4644V118.59ZM32.9014 120.981C34.0613 120.981 34.8911 120.365 35.1587 119.285H33.9275C33.7847 119.758 33.4189 120.026 32.8746 120.026C32.2412 120.026 31.8664 119.598 31.7861 118.822H35.1676C35.3907 117.269 34.3914 116.047 32.8836 116.047C31.5095 116.047 30.5192 117.082 30.5192 118.5C30.5192 119.99 31.4739 120.981 32.9014 120.981ZM32.8568 116.957C33.4457 116.957 33.8204 117.376 33.8561 118.036H31.804C31.911 117.332 32.2769 116.957 32.8568 116.957ZM37.9187 120.99C39.1946 120.99 40.0868 120.178 40.2295 118.866H38.9269C38.8555 119.517 38.4897 119.892 37.9187 119.892C37.2674 119.892 36.8659 119.375 36.8659 118.518C36.8659 117.671 37.2763 117.144 37.9187 117.144C38.4808 117.144 38.8644 117.537 38.9269 118.17H40.2295C40.0778 116.885 39.1589 116.047 37.9187 116.047C36.5803 116.047 35.5989 117.091 35.5989 118.518C35.5989 119.972 36.5447 120.99 37.9187 120.99ZM43.9879 119.696C43.8095 119.794 43.5954 119.848 43.3634 119.848C42.9173 119.848 42.6674 119.625 42.6674 119.071V117.198H44.0325V116.136H42.6674V114.726H41.4362V116.136H40.4726V117.198H41.4362V119.357C41.4362 120.428 42.0518 120.99 43.0333 120.99C43.3991 120.99 43.6846 120.927 43.9879 120.775V119.696Z" fill="#111827"/>
<path d="M210.875 120.097H208.332L209.545 118.723C210.536 117.671 210.794 117.189 210.794 116.502C210.794 115.511 209.974 114.78 208.849 114.78C207.654 114.78 206.815 115.583 206.815 116.698H207.698C207.698 116.029 208.145 115.592 208.814 115.592C209.429 115.592 209.849 116.011 209.849 116.609C209.849 117.153 209.572 117.572 208.858 118.349L206.976 120.383V120.9H210.875V120.097ZM213.759 120.981C215.044 120.981 215.919 120.249 215.919 119.178C215.919 118.482 215.464 117.965 214.67 117.751C215.294 117.456 215.642 116.984 215.642 116.395C215.642 115.449 214.893 114.78 213.733 114.78C212.635 114.78 211.797 115.52 211.77 116.511H212.644C212.671 115.895 213.081 115.502 213.697 115.502C214.304 115.502 214.705 115.886 214.705 116.457C214.705 117.046 214.259 117.439 213.581 117.439H213.001V118.161H213.626C214.455 118.161 214.982 118.563 214.982 119.196C214.982 119.848 214.518 120.258 213.759 120.258C213.028 120.258 212.546 119.839 212.51 119.187H211.627C211.636 120.249 212.51 120.981 213.759 120.981ZM218.152 120.517C218.152 119.919 217.884 119.562 217.394 119.562C217.028 119.562 216.742 119.812 216.742 120.196C216.742 120.526 216.992 120.802 217.331 120.802C217.394 120.802 217.447 120.793 217.528 120.767C217.474 121.204 217.081 121.516 216.502 121.534V122.042C217.483 122.025 218.152 121.364 218.152 120.517ZM222.417 115.395V114.869H218.348V115.681H221.408L219.115 120.9H220.088L222.417 115.395ZM227.371 119.205C227.371 118.474 226.881 117.992 226.247 117.76C226.747 117.537 227.139 117.064 227.139 116.448C227.139 115.467 226.31 114.78 225.168 114.78C224.008 114.78 223.187 115.467 223.187 116.448C223.187 117.064 223.571 117.537 224.079 117.76C223.446 117.992 222.946 118.474 222.946 119.205C222.946 120.258 223.847 120.981 225.168 120.981C226.479 120.981 227.371 120.258 227.371 119.205ZM224.115 116.475C224.115 115.877 224.543 115.502 225.168 115.502C225.783 115.502 226.211 115.877 226.211 116.475C226.211 117.064 225.783 117.421 225.168 117.421C224.543 117.421 224.115 117.064 224.115 116.475ZM223.892 119.187C223.892 118.536 224.409 118.143 225.168 118.143C225.917 118.143 226.443 118.536 226.443 119.187C226.443 119.856 225.917 120.258 225.168 120.258C224.409 120.258 223.892 119.856 223.892 119.187ZM230.235 114.789C228.95 114.789 228.022 115.681 228.022 116.823C228.022 117.983 228.879 118.777 230.048 118.777C230.217 118.777 230.396 118.75 230.574 118.688L228.799 120.9H229.834L231.645 118.652C232.18 117.992 232.439 117.519 232.439 116.778C232.439 115.681 231.52 114.789 230.235 114.789ZM230.226 115.547C230.931 115.547 231.502 116.047 231.502 116.805C231.502 117.644 230.931 118.072 230.226 118.072C229.512 118.072 228.959 117.59 228.959 116.796C228.959 116.047 229.512 115.547 230.226 115.547Z" fill="#718096"/>
<rect x="17.8447" y="127.875" width="214.876" height="5.94813" rx="1.48703" fill="#F9FAFB"/>
<rect x="17.8447" y="127.875" width="79.0863" height="5.94813" rx="1.48703" fill="#0062FF"/>
<defs>
<filter id="filter0_d_101_19946" x="203.798" y="17.6936" width="37.8446" height="20.8182" filterUnits="userSpaceOnUse" color-interpolation-filters="sRGB">
<feFlood flood-opacity="0" result="BackgroundImageFix"/>
<feColorMatrix in="SourceAlpha" type="matrix" values="0 0 0 0 0 0 0 0 0 0 0 0 0 0 0 0 0 0 127 0" result="hardAlpha"/>
<feOffset dy="1.48703"/>
<feGaussianBlur stdDeviation="1.48703"/>
<feComposite in2="hardAlpha" operator="out"/>
<feColorMatrix type="matrix" values="0 0 0 0 0.0666667 0 0 0 0 0.0941177 0 0 0 0 0.152941 0 0 0 0.04 0"/>
<feBlend mode="normal" in2="BackgroundImageFix" result="effect1_dropShadow_101_19946"/>
<feBlend mode="normal" in="SourceGraphic" in2="effect1_dropShadow_101_19946" result="shape"/>
</filter>
</defs>
</svg>
