<svg width="217" height="56" viewBox="0 0 217 56" fill="none" xmlns="http://www.w3.org/2000/svg">
<rect x="1" y="0.5" width="215.5" height="55" rx="11.5" stroke="#EEEFF2"/>
<path d="M87.6244 23.5039C87.5153 23.5652 84.9172 24.8584 84.9172 27.7258C85.0397 30.9959 88.1959 32.1427 88.25 32.1427C88.1959 32.2039 87.7735 33.7049 86.5224 35.2783C85.5295 36.6336 84.4275 38 82.754 38C81.1621 38 80.5907 37.0967 78.754 37.0967C76.7815 37.0967 76.2234 38 74.7131 38C73.0397 38 71.856 36.5603 70.809 35.2178C69.4487 33.4606 68.2925 30.703 68.2517 28.0553C68.2242 26.6522 68.5241 25.273 69.2854 24.1016C70.36 22.4661 72.2784 21.356 74.3733 21.3193C75.9785 21.2708 77.407 22.3078 78.3866 22.3078C79.3254 22.3078 81.0805 21.3193 83.0663 21.3193C83.9235 21.3201 86.2092 21.5517 87.6244 23.5039ZM78.2509 21.0392C77.9651 19.7579 78.754 18.4766 79.4887 17.6593C80.4274 16.6709 81.9101 16 83.1888 16C83.2704 17.2813 82.7531 18.5379 81.8285 19.4531C80.9989 20.4415 79.5703 21.1856 78.2509 21.0392Z" fill="#111827"/>
<path d="M113.611 34H115.483L111.115 22.512H109.179L104.779 34H106.555L107.611 31.152H112.571L113.611 34ZM110.107 24.432L112.043 29.728H108.139L110.107 24.432ZM125.235 29.76C125.235 27.2 123.747 25.36 121.491 25.36C120.291 25.36 119.251 25.984 118.643 27.072V25.52H117.139V37.088H118.755V32.56C119.363 33.584 120.339 34.16 121.491 34.16C123.763 34.16 125.235 32.32 125.235 29.76ZM123.555 29.76C123.555 31.664 122.547 32.72 121.155 32.72C119.795 32.72 118.755 31.632 118.755 29.76C118.755 27.856 119.811 26.784 121.155 26.784C122.547 26.784 123.555 27.856 123.555 29.76ZM135.169 29.76C135.169 27.2 133.681 25.36 131.425 25.36C130.225 25.36 129.185 25.984 128.577 27.072V25.52H127.073V37.088H128.689V32.56C129.297 33.584 130.273 34.16 131.425 34.16C133.697 34.16 135.169 32.32 135.169 29.76ZM133.489 29.76C133.489 31.664 132.481 32.72 131.089 32.72C129.729 32.72 128.689 31.632 128.689 29.76C128.689 27.856 129.745 26.784 131.089 26.784C132.481 26.784 133.489 27.856 133.489 29.76ZM138.64 34V22.512H137.008V34H138.64ZM144.571 34.16C146.571 34.16 148.027 33.024 148.443 31.136H146.843C146.571 32.24 145.739 32.896 144.539 32.896C143.115 32.896 142.251 31.888 142.123 30.16H148.443C148.731 27.408 147.051 25.36 144.523 25.36C142.187 25.36 140.475 27.2 140.475 29.712C140.475 32.384 142.123 34.16 144.571 34.16ZM144.491 26.576C145.803 26.576 146.651 27.52 146.731 29.088H142.139C142.315 27.504 143.195 26.576 144.491 26.576Z" fill="#111827"/>
</svg>
